<?xml version="1.0" encoding="utf-8"?>
<!-- Generator: Adobe Illustrator 27.5.0, SVG Export Plug-In . SVG Version: 6.00 Build 0)  -->
<svg version="1.1" xmlns="http://www.w3.org/2000/svg" xmlns:xlink="http://www.w3.org/1999/xlink" x="0px" y="0px"
	 viewBox="0 0 500 500" style="enable-background:new 0 0 500 500;" xml:space="preserve">
<g id="Background_Complete">
	<g>
		<rect y="382.398" style="fill:#EBEBEB;" width="500" height="0.25"/>
		<rect x="52.459" y="389.208" style="fill:#EBEBEB;" width="37.041" height="0.25"/>
		<rect x="169" y="394.619" style="fill:#EBEBEB;" width="71" height="0.25"/>
		<rect x="94.915" y="389.333" style="fill:#EBEBEB;" width="50.751" height="0.25"/>
		<rect x="406.778" y="396.814" style="fill:#EBEBEB;" width="48.667" height="0.25"/>
		<rect x="370.36" y="396.814" style="fill:#EBEBEB;" width="31.971" height="0.25"/>
		<rect x="277.213" y="392.592" style="fill:#EBEBEB;" width="62.009" height="0.25"/>
		<path style="fill:#EBEBEB;" d="M237.014,337.8H43.915c-3.147,0-5.708-2.561-5.708-5.708V60.66c0-3.147,2.561-5.708,5.708-5.708
			h193.099c3.146,0,5.707,2.561,5.707,5.708v271.432C242.721,335.239,240.16,337.8,237.014,337.8z M43.915,55.203
			c-3.01,0-5.458,2.448-5.458,5.458v271.432c0,3.01,2.448,5.458,5.458,5.458h193.099c3.009,0,5.457-2.448,5.457-5.458V60.66
			c0-3.009-2.448-5.458-5.457-5.458H43.915z"/>
		<path style="fill:#EBEBEB;" d="M453.31,337.8H260.212c-3.147,0-5.707-2.561-5.707-5.708V60.66c0-3.147,2.561-5.708,5.707-5.708
			H453.31c3.148,0,5.708,2.561,5.708,5.708v271.432C459.019,335.239,456.458,337.8,453.31,337.8z M260.212,55.203
			c-3.009,0-5.457,2.448-5.457,5.458v271.432c0,3.01,2.448,5.458,5.457,5.458H453.31c3.01,0,5.458-2.448,5.458-5.458V60.66
			c0-3.009-2.448-5.458-5.458-5.458H260.212z"/>
	</g>
	<g>
		<g>
			<g>
				
					<rect x="117.393" y="68.241" transform="matrix(-1 -1.224647e-16 1.224647e-16 -1 526.6803 298.0184)" style="fill:#EBEBEB;" width="291.894" height="161.537"/>
				<rect x="113.954" y="68.241" style="fill:#E0E0E0;" width="3.439" height="161.537"/>
				
					<rect x="127.9" y="78.748" transform="matrix(-1 -1.224647e-16 1.224647e-16 -1 526.6803 298.0184)" style="fill:#FFFFFF;" width="270.88" height="140.523"/>
				<polygon style="fill:#F5F5F5;" points="320.505,219.271 335.732,219.271 358.733,78.748 343.505,78.748 				"/>
				<polygon style="fill:#F5F5F5;" points="269.991,219.271 306.148,219.271 329.148,78.748 292.991,78.748 				"/>
				<polygon style="fill:#F5F5F5;" points="165.475,219.271 180.702,219.271 203.703,78.748 188.476,78.748 				"/>
			</g>
		</g>
		<g>
			<g>
				<rect x="193.782" y="265.113" style="fill:#F0F0F0;" width="43.997" height="109.539"/>
				<rect x="202.229" y="374.652" style="fill:#F0F0F0;" width="227.644" height="7.746"/>
				
					<rect x="237.779" y="265.113" transform="matrix(-1 -1.224647e-16 1.224647e-16 -1 676.0992 639.7652)" style="fill:#F5F5F5;" width="200.542" height="109.539"/>
				
					<rect x="237.008" y="272.528" transform="matrix(-1 -1.224647e-16 1.224647e-16 -1 675.3288 585.1501)" style="fill:#F0F0F0;" width="201.313" height="40.093"/>
				
					<rect x="237.008" y="319.934" transform="matrix(-1 -1.224647e-16 1.224647e-16 -1 675.3288 679.9613)" style="fill:#F0F0F0;" width="201.313" height="40.093"/>
				<rect x="230.167" y="272.528" style="fill:#E6E6E6;" width="7.611" height="40.093"/>
				<rect x="230.167" y="319.934" style="fill:#E6E6E6;" width="7.611" height="40.093"/>
			</g>
			<rect x="237.779" y="258.374" style="fill:#F0F0F0;" width="206.405" height="6.739"/>
			
				<rect x="187.633" y="258.374" transform="matrix(-1 -1.224647e-16 1.224647e-16 -1 425.4117 523.487)" style="fill:#E6E6E6;" width="50.145" height="6.739"/>
		</g>
		<g>
			<path style="fill:#E6E6E6;" d="M122.086,251.343h27.252c9.703,0,18.456,6.977,20.745,16.536l7.199,30.065l14.792-0.049h0.046
				c7.051,0,13.109,5.011,14.433,11.939l1.971,10.293c2.977,0.429,5.529,2.702,6.25,5.712h-73.107
				c-9.694,0-18.438-6.971-20.725-16.521l-10.337-43.172C108.753,258.418,114.24,251.343,122.086,251.343z M193.673,320.049h10.934
				l-1.834-9.49c-0.978-5.104-5.458-8.814-10.654-8.814h-0.039l-13.879,0.046l1.753,7.324
				C181.469,315.435,187.257,320.049,193.673,320.049z"/>
			<g>
				<polygon style="fill:#E0E0E0;" points="143.5,325.84 140.377,325.84 128.09,382.398 131.212,382.398 				"/>
				<polygon style="fill:#E0E0E0;" points="155.217,325.84 152.094,325.84 139.807,382.398 142.929,382.398 				"/>
			</g>
			<g>
				<polygon style="fill:#E0E0E0;" points="201.197,325.84 204.319,325.84 216.607,382.398 213.484,382.398 				"/>
				<polygon style="fill:#E0E0E0;" points="189.48,325.84 192.602,325.84 204.89,382.398 201.768,382.398 				"/>
			</g>
		</g>
		<g>
			
				<rect x="65.578" y="216.779" transform="matrix(-1 -1.224647e-16 1.224647e-16 -1 136.2465 599.1771)" style="fill:#F0F0F0;" width="5.089" height="165.62"/>
			<path style="fill:#F0F0F0;" d="M64.523,381.244l-0.138-0.709c0.054-0.012,1.389-0.307,2.404-2.104
				c1.323-2.344,2.128-7.333-1.551-17.801c-5.668-16.126-2.285-29.14,4.455-55.066c1.174-4.516,2.505-9.635,3.886-15.161
				c5.18-20.718,0.389-33.567-3.461-43.893c-2.989-8.016-5.349-14.347-2.328-21.68l0.668,0.275
				c-2.913,7.071-0.596,13.285,2.337,21.151c3.885,10.419,8.719,23.386,3.485,44.321c-1.382,5.529-2.713,10.649-3.888,15.167
				c-6.703,25.785-10.067,38.728-4.473,54.645c3.784,10.764,2.892,15.966,1.478,18.434C66.21,380.895,64.591,381.231,64.523,381.244
				z"/>
			<polygon style="fill:#F0F0F0;" points="58.914,382.398 77.333,382.398 72.211,379.38 64.035,379.38 			"/>
			<polygon style="fill:#F5F5F5;" points="45.018,237.87 91.229,237.87 86.143,176.63 50.104,176.63 			"/>
		</g>
		<g>
			<polygon style="fill:#F0F0F0;" points="372.479,223.841 414.776,223.841 409.209,258.374 378.046,258.374 			"/>
			<g>
				<path style="fill:#E6E6E6;" d="M389.454,240.202c11.513,1.381,36.568,0.2,39.5-19.647c2.933-19.848-54.19-23.26-64.493-22.614
					c-13.132,0.824-23.766,10.65-23.766,10.65S377.94,238.822,389.454,240.202z"/>
				<path style="fill:#E6E6E6;" d="M406.55,237.644c-8.181,0.81-22.094-5.007-16.59-20.981c5.504-15.974,16.769-17.46,24.217-18.794
					c9.494-1.7,28.472,5.508,28.472,5.508S414.731,236.834,406.55,237.644z"/>
				<path style="fill:#E6E6E6;" d="M385.143,211.298c10.306,4.351,18.948,5.829,14.068-7.728
					c-4.88-13.557-10.819-20.066-20.498-22.824c-12.337-3.516-26.978,4.038-26.978,4.038S374.837,206.946,385.143,211.298z"/>
				<path style="fill:#E6E6E6;" d="M399.131,208.775c-7.872,2.165-14.069,1.708-8.2-11.355c5.869-13.063,9.781-14.698,16.505-17.2
					c12.44-4.63,22.86,3.68,22.86,3.68S407.003,206.609,399.131,208.775z"/>
				<path style="fill:#E6E6E6;" d="M382.006,188.828c8.552,6.96,16.422,11.376,16.071,0.551
					c-0.351-10.824-6.398-20.523-15.596-24.889c-6.333-3.007-20.333-1.647-20.333-1.647S373.454,181.867,382.006,188.828z"/>
				<path style="fill:#E6E6E6;" d="M387.072,175.615c1.98,10.847,5.096,19.316,11.86,10.859c6.765-8.457,7.336-16.391,4.586-26.194
					c-3.505-12.496-14.664-17.32-14.664-17.32S385.092,164.768,387.072,175.615z"/>
				<path style="fill:#E6E6E6;" d="M404.046,184.839c-5.591,4.144-10.447,6.329-8.684-2.462c1.763-8.791,4.884-11.164,10.237-14.266
					c6.823-3.955,14.276-2.036,14.276-2.036S409.637,180.695,404.046,184.839z"/>
			</g>
		</g>
	</g>
</g>
<g id="Background_Simple" style="display:none;">
	<g style="display:inline;">
		<path style="fill:#407BFF;" d="M241.484,147.681c49.142,62.177,179.515,23.563,171.674,134.158
			c-7.513,105.966-146.459,86.059-213.615,56.228C121.682,303.48,65.242,224.146,99.289,140.434
			c13.149-32.33,38.308-62.432,76.202-64.131C236.033,73.588,215.436,114.724,241.484,147.681z"/>
		<path style="opacity:0.9;fill:#FFFFFF;" d="M241.484,147.681c49.142,62.177,179.515,23.563,171.674,134.158
			c-7.513,105.966-146.459,86.059-213.615,56.228C121.682,303.48,65.242,224.146,99.289,140.434
			c13.149-32.33,38.308-62.432,76.202-64.131C236.033,73.588,215.436,114.724,241.484,147.681z"/>
	</g>
</g>
<g id="Shadow_1_">
	<ellipse id="_x3C_Path_x3E__313_" style="fill:#F5F5F5;" cx="250" cy="416.238" rx="193.889" ry="11.323"/>
</g>
<g id="Character_1_">
	<g>
		<path style="fill:#263238;" d="M256.561,150.171c0.689,0.86,1.547,1.878,2.341,2.815c0.814,0.954,1.646,1.896,2.49,2.822
			c1.686,1.852,3.395,3.674,5.167,5.359c1.768,1.684,3.582,3.275,5.385,4.635c1.783,1.357,3.678,2.462,5.06,2.911l0.251,0.086
			c0.067,0.023,0.031,0.011,0.051,0.028c0.012,0.012,0.024,0.021,0.041,0.036c0.036,0.023,0.117,0.031,0.283,0.013
			c0.329-0.035,0.964-0.29,1.661-0.78c1.42-0.974,2.981-2.656,4.389-4.504c1.448-1.847,2.802-3.915,4.064-6.064
			c0.629-1.077,1.265-2.163,1.86-3.273c0.587-1.091,1.192-2.272,1.705-3.295l0.099-0.198c1.067-2.129,3.657-2.99,5.786-1.923
			c1.914,0.96,2.802,3.152,2.186,5.133c-1.708,5.503-3.819,10.534-6.889,15.647c-1.599,2.512-3.39,5.029-6.115,7.39
			c-1.374,1.161-3.046,2.312-5.255,3.075c-1.099,0.377-2.34,0.619-3.631,0.656c-0.647,0.014-1.298-0.017-1.942-0.101
			c-0.306-0.046-0.671-0.103-0.926-0.159l-0.712-0.168c-3.75-0.969-6.516-2.581-9.087-4.23c-2.563-1.663-4.83-3.488-6.979-5.383
			c-2.149-1.894-4.184-3.842-6.122-5.868c-0.966-1.015-1.914-2.043-2.846-3.088c-0.95-1.062-1.812-2.067-2.785-3.277
			c-2.313-2.875-1.858-7.081,1.017-9.394c2.875-2.313,7.081-1.858,9.394,1.017l0.009,0.011L256.561,150.171z"/>
		<path style="fill:#CE7A63;" d="M295.616,153.366l6.628,0.933l-1.956-7.09c0,0-6.866-0.911-7.041,2.669l0.328,1.576
			C293.785,152.458,294.601,153.223,295.616,153.366z"/>
		<polygon style="fill:#CE7A63;" points="308.197,151.26 308.197,144.854 300.289,147.21 302.245,154.299 		"/>
		<g>
			<polygon style="fill:#CE7A63;" points="281.74,405.122 288.989,402.77 284.483,385.679 277.234,388.031 			"/>
			<path style="fill:#263238;" d="M289.096,401.807l-8.143,2.643c-0.296,0.096-0.453,0.374-0.377,0.669l1.696,6.571
				c0.176,0.682,1.008,1.111,1.687,0.877c2.819-0.969,4.12-1.575,7.701-2.737c2.203-0.715,9.946-4.313,12.657-6.011
				c2.651-1.66,0.955-4.33-0.346-3.853c-5.833,2.137-10.913,2.824-13.482,1.881C290.026,401.678,289.53,401.667,289.096,401.807z"/>
			<g>
				<polygon style="opacity:0.2;" points="277.234,388.036 284.485,385.683 286.804,394.494 279.553,396.847 				"/>
			</g>
			<path style="fill:#263238;" d="M259.566,215.002c0,0,9.064,63,12.114,84.64c3.34,23.697,17.692,92.033,17.692,92.033
				l-13.454,3.717c0,0-20.448-66.192-25.894-89.227c-5.911-25.002-17.692-91.162-17.692-91.162H259.566z"/>
			<path style="fill:#263238;" d="M245.016,282.681c-2.765-13.898-5.767-29.81-8.141-42.711c1.223-3.31,3.094-5.027,6.733,2.477
				C249.014,253.539,247.287,271.836,245.016,282.681z"/>
			<path style="opacity:0.3;" d="M245.016,282.681c-2.765-13.898-5.767-29.81-8.141-42.711c1.223-3.31,3.094-5.027,6.733,2.477
				C249.014,253.539,247.287,271.836,245.016,282.681z"/>
			<polygon style="fill:#263238;" points="275.578,395.656 289.988,391.687 289.709,385.817 273.485,391.427 			"/>
		</g>
		<g>
			<polygon style="fill:#CE7A63;" points="224.675,408.457 232.295,408.457 233.285,390.809 225.665,390.809 			"/>
			<path style="fill:#263238;" d="M232.695,407.575h-8.561c-0.312,0-0.547,0.216-0.565,0.52l-0.415,6.774
				c-0.043,0.703,0.616,1.368,1.334,1.355c2.981-0.051,4.405-0.227,8.17-0.227c2.316,0,8.827,0.241,12.026,0.241
				c3.128,0,3.107-3.163,1.752-3.449c-6.078-1.284-10.275-3.056-12.427-4.746C233.619,407.738,233.151,407.575,232.695,407.575z"/>
			<g>
				<polygon style="opacity:0.2;" points="225.663,390.814 233.286,390.814 232.772,399.911 225.148,399.911 				"/>
			</g>
			<path style="fill:#263238;" d="M244.682,214.612c0,0-0.552,58.61-1.788,80.428c-1.354,23.893-6.854,102.674-6.854,102.674
				h-13.958c0,0-0.861-76.853-1.702-100.509c-0.912-25.675-2-82.594-2-82.594H244.682z"/>
			<polygon style="fill:#263238;" points="221.521,397.715 236.603,397.715 237.44,392.418 220.793,393.246 			"/>
		</g>
		<path style="fill:#F0F0F0;" d="M259.625,215.405l-41.243-0.793c-0.288-3.639,0.983-15.091,0.356-30.171
			c-0.422-10.125-1.511-21.71-4.05-33.243c-0.002-0.008-0.004-0.017-0.005-0.025c-0.302-1.341,0.579-2.658,1.934-2.887
			c0.727-0.123,1.583-0.26,2.532-0.398c2.457-0.36,5.541-0.73,8.563-0.874c5.201-0.246,12.736-0.411,17.32,0
			c2.662,0.247,3.733,0.406,5.809,0.806c1.267,0.255,2.537,0.626,3.279,0.997c0.716,0.358,1.398,0.753,1.67,1.506
			C257.674,155.534,259.659,177.514,259.625,215.405z"/>
		<path style="fill:#263238;" d="M222.898,159.056c-1.396,2.344-2.884,4.9-4.246,7.399c-1.388,2.513-2.74,5.04-4.009,7.589
			c-1.255,2.554-2.453,5.108-3.547,7.664l-0.785,1.917l-0.71,1.909c-0.252,0.64-0.43,1.264-0.637,1.894l-0.304,0.944
			c-0.051,0.228-0.088,0.252-0.13,0.516c-0.173,0.877-0.272,2.191-0.326,3.497c-0.05,1.324-0.051,2.713-0.016,4.121
			c0.059,2.818,0.251,5.703,0.455,8.6c0.193,2.9,0.442,5.816,0.726,8.734c0.252,2.915,0.564,5.863,0.849,8.746l0.006,0.062
			c0.234,2.372-1.499,4.485-3.871,4.719c-2.165,0.214-4.114-1.212-4.616-3.266c-1.447-5.899-2.614-11.758-3.613-17.759
			c-0.49-2.999-0.889-6.024-1.204-9.132c-0.156-1.554-0.279-3.132-0.343-4.777c-0.059-1.661-0.081-3.324,0.182-5.385
			c0.048-0.473,0.2-1.17,0.305-1.666l0.305-1.198c0.207-0.796,0.398-1.611,0.643-2.37l0.707-2.312l0.77-2.256
			c1.06-2.977,2.22-5.874,3.495-8.692c1.274-2.816,2.596-5.592,4.001-8.318c1.437-2.737,2.84-5.368,4.493-8.119
			c1.901-3.163,6.006-4.186,9.169-2.285c3.163,1.901,4.185,6.006,2.285,9.168L222.898,159.056z"/>
		<path style="fill:#CE7A63;" d="M244.209,146.953c-5.037-1.192-5.921-4.307-5.582-7.73c0.072-0.833,0.216-1.697,0.401-2.55
			l-6.312-5.242l-4.636-3.845c1.285,5.582,2.734,15.748-1.038,19.469c0,0,5.282,4.099,12.713,3.817
			C247.186,150.591,244.209,146.953,244.209,146.953z"/>
		<polygon style="fill:#E0E0E0;" points="239.477,150.882 238.8,149.203 234.603,151.708 		"/>
		<polygon style="fill:#E0E0E0;" points="239.477,150.882 239.819,149.203 244.016,151.708 		"/>
		<path style="fill:#FFFFFF;" d="M227.37,146.047c3.544,1.536,7.373,2.554,11.43,3.155c-1.383,1.749-2.489,3.515-3.148,5.311
			c-1.829-0.496-9.85-5.394-11.621-7.75L227.37,146.047z"/>
		<path style="fill:#FFFFFF;" d="M242.997,146.226c-0.869,1.309-1.873,2.393-3.178,2.977c1.471,1.073,2.938,3.159,3.913,4.668
			c1.294-1.709,1.951-5.208,1.742-7.107L242.997,146.226z"/>
		<path style="opacity:0.3;" d="M227.043,145.391c0,0-5.557,1.204-10.256,2.643c-3.409,1.044-5.623,4.344-5.283,7.894
			c0.972,10.14,5.594,28.542,5.685,36.32c0.114,9.708,2.152,28.029,2.152,28.029l20.787,4.294
			C240.128,224.57,242.625,151.986,227.043,145.391z"/>
		<path style="opacity:0.3;" d="M243.098,146.047c0,0,4.624,0.492,8.887,1.397c3.578,0.759,6.262,3.809,6.508,7.458
			c1.132,16.786,0.599,33.683,1.132,42.784c0.568,9.692-0.177,22.253-0.177,22.253l-8.124,2.346
			C251.324,222.286,249.265,158.754,243.098,146.047z"/>
		<path style="fill:#263238;" d="M227.043,145.391c0,0-5.557,1.204-10.256,2.643c-3.409,1.044-5.623,4.344-5.283,7.894
			c0.972,10.14,3.977,28.656,4.068,36.434c0.114,9.708-0.95,26.663-0.95,26.663l23.605,2.262
			C238.227,221.286,242.625,151.986,227.043,145.391z"/>
		<path style="fill:#263238;" d="M243.098,146.047c0,0,4.624,0.492,8.887,1.397c3.578,0.759,6.262,3.809,6.508,7.458
			c1.132,16.786,1.826,33.611,2.359,42.713c0.568,9.692,0.614,21.742,0.614,21.742l-9.591,0.919
			C251.875,220.276,249.265,158.754,243.098,146.047z"/>
		<path style="opacity:0.2;" d="M239.029,136.673c-0.185,0.853-0.329,1.717-0.401,2.55c-2.354-0.473-5.499-2.981-5.828-5.387
			c-0.123-0.904-0.144-1.778-0.082-2.405L239.029,136.673z"/>
		<path style="fill:#263238;" d="M244.731,113.737c0.527,3.846-1.041,7.237-3.502,7.574s-4.883-2.507-5.41-6.354
			s1.041-7.237,3.502-7.574C241.782,107.047,244.204,109.891,244.731,113.737z"/>
		<path style="fill:#CE7A63;" d="M224.87,121.976c2.901,7.007,4.24,11.243,9.147,13.794c7.382,3.838,15.167-2.158,14.437-9.814
			c-0.658-6.891-5.291-17.192-13.336-17.874C227.193,107.409,221.969,114.969,224.87,121.976z"/>
		<path style="fill:#263238;" d="M225.135,127.414c0.415,3.641,5.743,2.273,4.85-4.923c-0.301-2.426-2.299-6.125-2.299-6.125
			s12.423-5.01,14.968-7.554c2.356-2.355,2.527-5.567,0.744-6.566c0,0-0.947,2.227-3.123,2.398c0,0,2.531-3.426,0.863-5.482
			c-1.097,2.284-2.486,3.841-5.753,4.226c-4.367,0.514-9.393-1.385-12.648,3.426c-2.59,3.828-6.453,2.399-4.854,7.75
			c-5.025,3.272-1.313,6.497,0.857,7.711C220.91,123.49,224.905,125.399,225.135,127.414z"/>
		<path style="fill:#263238;" d="M218.597,114.496c0,0-3.369-0.571-2.513-4.626C212.715,113.668,215.257,115.409,218.597,114.496z"
			/>
		<path style="fill:#CE7A63;" d="M224.562,129.889c1.587,1.332,3.548,1.933,5.124,1.918c2.371-0.022,2.504-2.246,0.964-4.094
			c-1.386-1.663-4.29-3.655-6.245-2.741C222.479,125.873,222.748,128.366,224.562,129.889z"/>
		<path style="fill:#263238;" d="M236.507,120.624c0.2,0.582,0.674,0.958,1.058,0.84c0.384-0.118,0.533-0.684,0.333-1.266
			c-0.2-0.582-0.674-0.958-1.058-0.84S236.307,120.043,236.507,120.624z"/>
		<path style="fill:#263238;" d="M243.151,118.593c0.2,0.582,0.674,0.958,1.058,0.84c0.384-0.118,0.533-0.684,0.333-1.266
			c-0.2-0.582-0.674-0.958-1.058-0.84C243.1,117.445,242.951,118.011,243.151,118.593z"/>
		<path style="fill:#BA4D3C;" d="M241.138,119.528c0,0,2.491,2.947,4.52,4.115c-0.71,1.278-2.629,1.38-2.629,1.38L241.138,119.528z"
			/>
		<path style="fill:#263238;" d="M241.167,127.324c-2.383,0.43-3.983-0.816-4.056-0.874c-0.078-0.062-0.091-0.175-0.029-0.253
			c0.062-0.079,0.175-0.091,0.253-0.029c0.018,0.014,1.839,1.435,4.422,0.642c0.096-0.03,0.196,0.024,0.225,0.12
			c0.029,0.095-0.024,0.196-0.12,0.225C241.624,127.228,241.392,127.283,241.167,127.324z"/>
		<path style="fill:#263238;" d="M233.721,119.13c-0.058,0.01-0.12,0.007-0.18-0.014c-0.189-0.064-0.29-0.27-0.225-0.458
			c0.636-1.868,2.264-2.263,2.333-2.278c0.179-0.06,0.388,0.075,0.433,0.27c0.045,0.194-0.076,0.388-0.27,0.433
			c-0.067,0.017-1.313,0.341-1.812,1.808C233.956,119.02,233.846,119.108,233.721,119.13z"/>
		<g>
			<path style="fill:#407BFF;" d="M212.279,250.15c-0.286,0-0.574-0.026-0.865-0.079l0,0l-13.493-2.473
				c-1.254-0.229-2.347-0.938-3.076-1.993c-0.728-1.056-1.003-2.329-0.773-3.584l1.249-6.816c0.23-1.255,0.938-2.347,1.994-3.076
				c1.054-0.73,2.327-1.006,3.582-0.773l13.493,2.472c2.599,0.477,4.326,2.978,3.849,5.576l-1.249,6.817
				C216.567,248.529,214.546,250.15,212.279,250.15z M211.784,248.049c1.484,0.269,2.912-0.715,3.184-2.198l1.249-6.817
				c0.272-1.483-0.714-2.911-2.198-3.183l-13.493-2.472c-0.714-0.13-1.44,0.026-2.044,0.443c-0.603,0.417-1.008,1.04-1.139,1.756
				l-1.249,6.816c-0.13,0.714,0.027,1.441,0.443,2.044c0.417,0.604,1.039,1.009,1.754,1.139L211.784,248.049z"/>
			<g>
				<path style="fill:#263238;" d="M225.967,282.934l-48.252-8.843c-2.997-0.549-4.999-3.45-4.45-6.447l5.199-28.367
					c0.549-2.997,3.45-4.999,6.447-4.45l48.251,8.843c2.997,0.549,4.999,3.45,4.45,6.447l-5.199,28.367
					C231.865,281.481,228.963,283.484,225.967,282.934z"/>
				<path style="opacity:0.8;fill:#407BFF;" d="M225.967,282.934l-48.252-8.843c-2.997-0.549-4.999-3.45-4.45-6.447l5.199-28.367
					c0.549-2.997,3.45-4.999,6.447-4.45l48.251,8.843c2.997,0.549,4.999,3.45,4.45,6.447l-5.199,28.367
					C231.865,281.481,228.963,283.484,225.967,282.934z"/>
			</g>
			<path style="fill:#407BFF;" d="M223.439,282.471l-48.252-8.843c-2.997-0.549-4.999-3.451-4.45-6.447l5.199-28.367
				c0.549-2.997,3.45-4.999,6.447-4.45l48.252,8.843c2.997,0.549,4.999,3.45,4.45,6.447l-5.199,28.367
				C229.337,281.018,226.436,283.02,223.439,282.471z"/>
			<path style="opacity:0.3;fill:#263238;" d="M231.855,243.431l-50.692-9.29c-2.326-0.426-4.577,1.128-5.004,3.454l-2.784,15.191
				c-0.426,2.326,1.128,4.577,3.454,5.004l21.301,3.904l-0.306,1.672c-0.14,0.764,0.37,1.504,1.134,1.643l3.794,0.695
				c0.764,0.14,1.504-0.371,1.644-1.134l0.307-1.672l22.818,4.182c2.326,0.426,4.577-1.128,5.003-3.454l2.784-15.191
				C235.734,246.109,234.18,243.857,231.855,243.431z"/>
			<path style="fill:#407BFF;" d="M225.393,265.18l-50.957-9.339c-2.253-0.413-3.548-2.555-2.879-4.761l4.16-13.704
				c0.67-2.206,3.061-3.673,5.313-3.26l50.957,9.339c2.253,0.413,3.548,2.555,2.878,4.761l-4.16,13.704
				C230.036,264.125,227.645,265.592,225.393,265.18z"/>
			<path style="fill:#FFFFFF;" d="M200.279,264.271l-3.828-0.702c-0.993-0.182-1.564-1.126-1.269-2.098l1.833-6.04
				c0.295-0.972,1.349-1.619,2.342-1.437l3.828,0.702c0.993,0.182,1.564,1.126,1.269,2.098l-1.833,6.039
				C202.326,263.807,201.272,264.453,200.279,264.271z"/>
		</g>
		<path style="fill:#263238;" d="M245.23,115.459c-0.114,0.021-0.235-0.014-0.322-0.102c-1.151-1.171-2.477-0.957-2.49-0.954
			c-0.197,0.035-0.384-0.097-0.417-0.293c-0.034-0.196,0.096-0.382,0.291-0.417c0.001,0,0.001,0,0.002,0
			c0.07-0.012,1.716-0.279,3.128,1.159c0.14,0.142,0.138,0.371-0.004,0.51C245.364,115.414,245.298,115.447,245.23,115.459z"/>
		<path style="fill:#CE7A63;" d="M210.297,224.626l2.282,7.309l-9.412-1.922c0,0-1.445-6.774,2.11-7.228l3.331,0.426
			C209.399,223.312,210.059,223.865,210.297,224.626z"/>
		<path style="fill:#CE7A63;" d="M208.071,237.627l-4.097-0.768c-1.199-0.225-1.977-1.394-1.721-2.587l0.914-4.259l9.412,1.922
			l-2.151,4.496C210.003,237.318,209.037,237.808,208.071,237.627z"/>
	</g>
</g>
<g id="Coin">
	<g>
		<g>
			<g>
				<g>
					<path style="fill:#407BFF;" d="M297.093,68.84h6.532v61.246h-6.532c-16.913,0-30.623-13.71-30.623-30.623
						C266.47,82.55,280.18,68.84,297.093,68.84z"/>
					<path style="opacity:0.1;" d="M297.093,68.84h6.532v61.246h-6.532c-16.913,0-30.623-13.71-30.623-30.623
						C266.47,82.55,280.18,68.84,297.093,68.84z"/>
					<path style="opacity:0.3;fill:#263238;" d="M303.627,107.474v2.767H268.43c-0.352-0.903-0.647-1.826-0.904-2.767H303.627z"/>
					<path style="opacity:0.3;fill:#263238;" d="M273.29,118.725h30.338v11.365h-6.533
						C287.479,130.089,278.901,125.658,273.29,118.725z"/>
				</g>
				<path style="fill:#407BFF;" d="M317.282,130.839l-0.412-0.942c1.839-0.803,3.617-1.782,5.285-2.908l0.575,0.851
					C321.011,129.002,319.178,130.011,317.282,130.839z"/>
				<path style="fill:#407BFF;" d="M328.104,123.353l-0.736-0.719c4.799-4.915,7.917-11.072,9.016-17.805l1.015,0.167
					C336.265,111.938,333.051,118.286,328.104,123.353z"/>
				
					<ellipse transform="matrix(0.4571 -0.8894 0.8894 0.4571 76.3784 324.0508)" style="fill:#407BFF;" cx="303.625" cy="99.463" rx="30.623" ry="30.623"/>
				<g>
					<path style="fill:#FFFFFF;" d="M305.521,109.884l-2.526-7.868c-2.679,0.087-4.819-0.396-6.421-1.449
						c-1.601-1.053-2.728-2.594-3.379-4.622c-0.659-2.053-0.565-3.985,0.283-5.797c0.847-1.812,2.313-3.169,4.398-4.074l-0.61-1.9
						l2.722-0.874l0.61,1.9c2.067-0.401,3.869-0.231,5.405,0.512c1.536,0.743,2.769,2,3.698,3.774l-4.552,2.145
						c-0.763-1.384-1.835-2.145-3.219-2.281l2.357,7.342c3.266-0.151,5.652,0.246,7.156,1.192c1.505,0.946,2.583,2.433,3.234,4.461
						c0.728,2.266,0.655,4.395-0.217,6.387c-0.872,1.993-2.473,3.556-4.802,4.69l0.61,1.9l-2.722,0.874l-0.58-1.806
						c-2.25,0.433-4.268,0.19-6.054-0.728c-1.787-0.918-3.263-2.549-4.43-4.895l4.732-2.099c0.522,0.937,1.175,1.681,1.958,2.229
						C303.958,109.447,304.741,109.776,305.521,109.884z M299.191,90.168c-0.659,0.488-1.111,1.102-1.355,1.844
						c-0.245,0.742-0.251,1.476-0.018,2.202c0.213,0.664,0.611,1.216,1.195,1.657c0.584,0.441,1.339,0.706,2.265,0.795
						L299.191,90.168z M308.328,109.273c0.883-0.477,1.506-1.157,1.872-2.041c0.366-0.884,0.397-1.795,0.096-2.734
						c-0.269-0.839-0.749-1.482-1.438-1.931c-0.69-0.448-1.65-0.654-2.881-0.618L308.328,109.273z"/>
				</g>
				<path style="opacity:0.1;" d="M280.783,89.443c2.997-5.064,7.786-9.094,13.832-11.035c13.116-4.211,27.164,3.008,31.376,16.124
					c1.939,6.038,1.454,12.274-0.914,17.657c3.514-5.928,4.569-13.275,2.297-20.353C323.162,78.72,309.116,71.5,296,75.712
					C288.917,77.986,283.555,83.127,280.783,89.443z"/>
			</g>
		</g>
		<path style="opacity:0.3;fill:#407BFF;" d="M333.253,72.282c-1.137,0.38-1.697,0.939-2.077,2.077c-0.158,0.474-0.851,0.474-1.01,0
			c-0.38-1.137-0.939-1.697-2.077-2.077c-0.474-0.158-0.474-0.851,0-1.01c1.137-0.38,1.697-0.939,2.077-2.077
			c0.158-0.474,0.851-0.474,1.01,0c0.38,1.137,0.939,1.697,2.077,2.077C333.727,71.43,333.727,72.123,333.253,72.282z"/>
		<path style="opacity:0.2;fill:#407BFF;" d="M281.126,132.593c-0.861,0.288-1.285,0.712-1.573,1.573
			c-0.12,0.359-0.645,0.359-0.765,0c-0.288-0.861-0.712-1.285-1.573-1.573c-0.359-0.12-0.359-0.645,0-0.765
			c0.861-0.288,1.285-0.712,1.573-1.573c0.12-0.359,0.645-0.359,0.765,0c0.288,0.861,0.712,1.285,1.573,1.573
			C281.486,131.948,281.486,132.473,281.126,132.593z"/>
		<path style="opacity:0.4;fill:#407BFF;" d="M276.468,68.511c-1.527,0.51-2.279,1.261-2.788,2.788
			c-0.213,0.637-1.143,0.637-1.356,0c-0.51-1.527-1.262-2.279-2.789-2.788c-0.637-0.213-0.637-1.143,0-1.356
			c1.527-0.51,2.279-1.261,2.789-2.788c0.213-0.637,1.143-0.637,1.356,0c0.51,1.527,1.261,2.279,2.788,2.788
			C277.105,67.368,277.105,68.298,276.468,68.511z"/>
	</g>
</g>
</svg>
